<mxfile host="app.diagrams.net" agent="Mozilla/5.0 (Macintosh; Intel Mac OS X 10_15_7) AppleWebKit/537.36 (KHTML, like Gecko) Chrome/131.0.0.0 Safari/537.36" version="26.0.3">
  <diagram name="Seite-1" id="SsOCYxwzpiLqpLyVivhC">
    <mxGraphModel dx="1844" dy="425" grid="1" gridSize="10" guides="1" tooltips="1" connect="1" arrows="1" fold="1" page="1" pageScale="1" pageWidth="827" pageHeight="1169" math="0" shadow="0">
      <root>
        <mxCell id="0" />
        <mxCell id="1" parent="0" />
        <mxCell id="sut6IgfdAZMAAdU67zym-39" value="Verteilungsdiagramm: Ansible Bereitstellung Absicherung" style="shape=umlFrame;whiteSpace=wrap;html=1;pointerEvents=0;width=340;height=30;" vertex="1" parent="1">
          <mxGeometry x="-110" y="60" width="870" height="390" as="geometry" />
        </mxCell>
        <mxCell id="sut6IgfdAZMAAdU67zym-46" value="" style="group" vertex="1" connectable="0" parent="1">
          <mxGeometry x="-80" y="152.5" width="230" height="210" as="geometry" />
        </mxCell>
        <mxCell id="sut6IgfdAZMAAdU67zym-33" value="«device»&amp;nbsp;&lt;b&gt;Ansible Client&lt;/b&gt;" style="verticalAlign=top;align=center;shape=cube;size=10;direction=south;html=1;boundedLbl=1;spacingLeft=5;whiteSpace=wrap;" vertex="1" parent="sut6IgfdAZMAAdU67zym-46">
          <mxGeometry width="230" height="210" as="geometry" />
        </mxCell>
        <mxCell id="sut6IgfdAZMAAdU67zym-34" value="«component»&lt;br&gt;&lt;b&gt;Cluster Installation Playbook&lt;/b&gt;" style="html=1;dropTarget=0;whiteSpace=wrap;" vertex="1" parent="sut6IgfdAZMAAdU67zym-46">
          <mxGeometry x="20" y="48.46153846153846" width="180" height="64.61538461538461" as="geometry" />
        </mxCell>
        <mxCell id="sut6IgfdAZMAAdU67zym-35" value="" style="shape=module;jettyWidth=8;jettyHeight=4;" vertex="1" parent="sut6IgfdAZMAAdU67zym-34">
          <mxGeometry x="1" width="20" height="20" relative="1" as="geometry">
            <mxPoint x="-27" y="7" as="offset" />
          </mxGeometry>
        </mxCell>
        <mxCell id="sut6IgfdAZMAAdU67zym-36" value="" style="group" vertex="1" connectable="0" parent="sut6IgfdAZMAAdU67zym-46">
          <mxGeometry x="20" y="123.84615384615384" width="180" height="64.61538461538461" as="geometry" />
        </mxCell>
        <mxCell id="sut6IgfdAZMAAdU67zym-37" value="«artefact»&lt;br&gt;&lt;b&gt;Ansible&lt;/b&gt;" style="html=1;dropTarget=0;whiteSpace=wrap;" vertex="1" parent="sut6IgfdAZMAAdU67zym-36">
          <mxGeometry width="180" height="64.61538461538461" as="geometry" />
        </mxCell>
        <mxCell id="sut6IgfdAZMAAdU67zym-38" value="" style="shape=note2;boundedLbl=1;whiteSpace=wrap;html=1;size=6;verticalAlign=top;align=left;spacingLeft=5;" vertex="1" parent="sut6IgfdAZMAAdU67zym-36">
          <mxGeometry x="145.38461538461536" y="8.076923076923077" width="20.769230769230766" height="16.153846153846153" as="geometry" />
        </mxCell>
        <mxCell id="sut6IgfdAZMAAdU67zym-25" value="«device»&amp;nbsp;&lt;b&gt;artpc17 (master)&lt;/b&gt;" style="verticalAlign=top;align=center;shape=cube;size=10;direction=south;html=1;boundedLbl=1;spacingLeft=5;whiteSpace=wrap;" vertex="1" parent="1">
          <mxGeometry x="280" y="89" width="450" height="331" as="geometry" />
        </mxCell>
        <mxCell id="sut6IgfdAZMAAdU67zym-55" style="edgeStyle=orthogonalEdgeStyle;rounded=0;orthogonalLoop=1;jettySize=auto;html=1;exitX=0.5;exitY=0;exitDx=0;exitDy=0;dashed=1;endArrow=open;endFill=0;endSize=9;" edge="1" parent="1" source="sut6IgfdAZMAAdU67zym-28">
          <mxGeometry relative="1" as="geometry">
            <mxPoint x="375" y="280" as="targetPoint" />
          </mxGeometry>
        </mxCell>
        <mxCell id="sut6IgfdAZMAAdU67zym-28" value="«component»&lt;br&gt;&lt;b&gt;Kubeadm&lt;/b&gt;" style="html=1;dropTarget=0;whiteSpace=wrap;" vertex="1" parent="1">
          <mxGeometry x="290" y="340" width="170" height="70" as="geometry" />
        </mxCell>
        <mxCell id="sut6IgfdAZMAAdU67zym-29" value="" style="shape=module;jettyWidth=8;jettyHeight=4;" vertex="1" parent="sut6IgfdAZMAAdU67zym-28">
          <mxGeometry x="1" width="20" height="20" relative="1" as="geometry">
            <mxPoint x="-27" y="7" as="offset" />
          </mxGeometry>
        </mxCell>
        <mxCell id="sut6IgfdAZMAAdU67zym-30" value="" style="group" vertex="1" connectable="0" parent="1">
          <mxGeometry x="540" y="130" width="170" height="70" as="geometry" />
        </mxCell>
        <mxCell id="sut6IgfdAZMAAdU67zym-31" value="«artefact»&lt;br&gt;&lt;b&gt;audit-policy.yaml&lt;/b&gt;" style="html=1;dropTarget=0;whiteSpace=wrap;" vertex="1" parent="sut6IgfdAZMAAdU67zym-30">
          <mxGeometry width="170.00000000000003" height="70" as="geometry" />
        </mxCell>
        <mxCell id="sut6IgfdAZMAAdU67zym-32" value="" style="shape=note2;boundedLbl=1;whiteSpace=wrap;html=1;size=6;verticalAlign=top;align=left;spacingLeft=5;" vertex="1" parent="sut6IgfdAZMAAdU67zym-30">
          <mxGeometry x="138.125" y="8.75" width="18.795625" height="26.25" as="geometry" />
        </mxCell>
        <mxCell id="sut6IgfdAZMAAdU67zym-40" value="" style="group" vertex="1" connectable="0" parent="1">
          <mxGeometry x="540" y="210" width="170" height="70" as="geometry" />
        </mxCell>
        <mxCell id="sut6IgfdAZMAAdU67zym-41" value="«artefact»&lt;br&gt;&lt;b&gt;psp-admission-config.yaml&lt;/b&gt;" style="html=1;dropTarget=0;whiteSpace=wrap;" vertex="1" parent="sut6IgfdAZMAAdU67zym-40">
          <mxGeometry width="170.00000000000003" height="70" as="geometry" />
        </mxCell>
        <mxCell id="sut6IgfdAZMAAdU67zym-42" value="" style="shape=note2;boundedLbl=1;whiteSpace=wrap;html=1;size=6;verticalAlign=top;align=left;spacingLeft=5;" vertex="1" parent="sut6IgfdAZMAAdU67zym-40">
          <mxGeometry x="138.125" y="8.75" width="18.795625" height="26.25" as="geometry" />
        </mxCell>
        <mxCell id="sut6IgfdAZMAAdU67zym-43" value="" style="group" vertex="1" connectable="0" parent="1">
          <mxGeometry x="290" y="210" width="170" height="70" as="geometry" />
        </mxCell>
        <mxCell id="sut6IgfdAZMAAdU67zym-44" value="«artefact»&lt;br&gt;&lt;b&gt;kubeadm-config.yaml&lt;/b&gt;" style="html=1;dropTarget=0;whiteSpace=wrap;" vertex="1" parent="sut6IgfdAZMAAdU67zym-43">
          <mxGeometry width="170.00000000000003" height="70" as="geometry" />
        </mxCell>
        <mxCell id="sut6IgfdAZMAAdU67zym-45" value="" style="shape=note2;boundedLbl=1;whiteSpace=wrap;html=1;size=6;verticalAlign=top;align=left;spacingLeft=5;" vertex="1" parent="sut6IgfdAZMAAdU67zym-43">
          <mxGeometry x="138.125" y="8.75" width="18.795625" height="26.25" as="geometry" />
        </mxCell>
        <mxCell id="sut6IgfdAZMAAdU67zym-51" value="" style="group" vertex="1" connectable="0" parent="1">
          <mxGeometry x="540" y="290" width="170" height="70" as="geometry" />
        </mxCell>
        <mxCell id="sut6IgfdAZMAAdU67zym-52" value="«artefact»&lt;br&gt;&lt;b&gt;encryptionConfig.yaml&lt;/b&gt;" style="html=1;dropTarget=0;whiteSpace=wrap;" vertex="1" parent="sut6IgfdAZMAAdU67zym-51">
          <mxGeometry width="170.00000000000003" height="70" as="geometry" />
        </mxCell>
        <mxCell id="sut6IgfdAZMAAdU67zym-53" value="" style="shape=note2;boundedLbl=1;whiteSpace=wrap;html=1;size=6;verticalAlign=top;align=left;spacingLeft=5;" vertex="1" parent="sut6IgfdAZMAAdU67zym-51">
          <mxGeometry x="138.125" y="8.75" width="18.795625" height="26.25" as="geometry" />
        </mxCell>
        <mxCell id="sut6IgfdAZMAAdU67zym-56" style="rounded=0;orthogonalLoop=1;jettySize=auto;html=1;exitX=1;exitY=0.5;exitDx=0;exitDy=0;dashed=1;endArrow=open;endFill=0;endSize=9;entryX=0;entryY=0.5;entryDx=0;entryDy=0;" edge="1" parent="1" source="sut6IgfdAZMAAdU67zym-44" target="sut6IgfdAZMAAdU67zym-31">
          <mxGeometry relative="1" as="geometry">
            <mxPoint x="385" y="290" as="targetPoint" />
            <mxPoint x="385" y="350" as="sourcePoint" />
          </mxGeometry>
        </mxCell>
        <mxCell id="sut6IgfdAZMAAdU67zym-57" style="rounded=0;orthogonalLoop=1;jettySize=auto;html=1;exitX=1;exitY=0.5;exitDx=0;exitDy=0;dashed=1;endArrow=open;endFill=0;endSize=9;entryX=0;entryY=0.5;entryDx=0;entryDy=0;" edge="1" parent="1" source="sut6IgfdAZMAAdU67zym-44" target="sut6IgfdAZMAAdU67zym-41">
          <mxGeometry relative="1" as="geometry">
            <mxPoint x="550" y="175" as="targetPoint" />
            <mxPoint x="470" y="255" as="sourcePoint" />
          </mxGeometry>
        </mxCell>
        <mxCell id="sut6IgfdAZMAAdU67zym-58" style="rounded=0;orthogonalLoop=1;jettySize=auto;html=1;exitX=1;exitY=0.5;exitDx=0;exitDy=0;dashed=1;endArrow=open;endFill=0;endSize=9;entryX=0;entryY=0.5;entryDx=0;entryDy=0;" edge="1" parent="1" source="sut6IgfdAZMAAdU67zym-44" target="sut6IgfdAZMAAdU67zym-52">
          <mxGeometry relative="1" as="geometry">
            <mxPoint x="550" y="255" as="targetPoint" />
            <mxPoint x="470" y="255" as="sourcePoint" />
          </mxGeometry>
        </mxCell>
        <mxCell id="sut6IgfdAZMAAdU67zym-59" style="rounded=0;orthogonalLoop=1;jettySize=auto;html=1;exitX=0;exitY=0;exitDx=100;exitDy=0;exitPerimeter=0;endArrow=none;endFill=0;" edge="1" parent="1" source="sut6IgfdAZMAAdU67zym-33">
          <mxGeometry relative="1" as="geometry">
            <mxPoint x="279" y="252" as="targetPoint" />
          </mxGeometry>
        </mxCell>
        <mxCell id="sut6IgfdAZMAAdU67zym-60" value="ssh (tcp/22)" style="text;html=1;align=center;verticalAlign=middle;resizable=0;points=[];autosize=1;strokeColor=none;fillColor=none;" vertex="1" parent="1">
          <mxGeometry x="170" y="230" width="90" height="30" as="geometry" />
        </mxCell>
      </root>
    </mxGraphModel>
  </diagram>
</mxfile>
